# xmcd
#
# Track frame offsets:
#	150
#	13826
#	26406
#	40090
#	52884
#	66235
#	79847
#	93269
#	106864
#	118641
#	131093
#	147006
#	160705
#	174093
#
# Disc length: 2491 seconds
#
# Revision: 0
# Processed by: cddbd v1.5.2PL0 Copyright (c) Steve Scherf et al.
# Submitted via: audiograbber 1.83.01
#
DISCID=a709b90e
DTITLE=Brugger Buam - Jung und fetzig
DYEAR=2011
DGENRE=Volkstümlich
TTITLE0=Die Liader vom Vater
TTITLE1=I hab an Regenbogen g`sehn
TTITLE2=Ein Brief von meinem Herz
TTITLE3=So ein Tag
TTITLE4=Mein Heiratsantrag
TTITLE5=So soll der Sommer sein
TTITLE6=Du hast Augen wie zwoa Stern
TTITLE7=Heimweh
TTITLE8=Ding-Ding-Dong
TTITLE9=Ganz egal was auch kommen mag
TTITLE10=Bella Rosa
TTITLE11=Die Leut`in die Berg
TTITLE12=Sag wo is fuer di des Paradies
TTITLE13=Machs guat
EXTD=
EXTT0=
EXTT1=
EXTT2=
EXTT3=
EXTT4=
EXTT5=
EXTT6=
EXTT7=
EXTT8=
EXTT9=
EXTT10=
EXTT11=
EXTT12=
EXTT13=
PLAYORDER=
